<svg xmlns="http://www.w3.org/2000/svg" viewBox="0 0 58.92 34.37"><path fill="#1a237b" d="M29.47 0V1.64l-6.54 3.27h6.54v4.91h-6.54l6.54 3.27V14.83h-3.11l-9.17-4.59v4.59h-4.92v-4.59L3.1 14.83H0v19.54h58.92V0zM0 9.82v3.26l6.53-3.26zM17.19 0v4.49L26.17 0zM12.27 0H3.29l8.98 4.49zM0 4.91h6.53L0 1.65z"/><path fill="#fff" d="M29.46 0l-9.82 4.91h-2.2L27.26 0h-1.09l-8.98 4.49V0h-.99V5.89h13.27v-.98h-6.54l6.54-3.27V0zM12.27 0v4.49L3.29 0H0l9.82 4.91h-2.2L0 1.1v.55l6.53 3.26H0v.98h13.26V0zM19.87 8.84H16.2v5.99h.99v-4.59l9.17 4.59h3.11v-.09l-9.83-4.92h2.2l7.63 3.82v-.55l-6.54-3.27h6.54v-.98h-8.5zM11.78 8.84H0v.98h6.53L0 13.08v1.65l9.82-4.91h2.2L2 14.83h1.1l9.17-4.59v4.59h.99V8.84z"/><path fill="#bd0034" d="M9.82 9.82L0 14.73v.1h2l10.02-5.01zM0 1.1l7.62 3.81h2.2L0 0zM29.46 0h-2.2l-9.82 4.91h2.2zM19.64 9.82l9.83 4.92v-1.1l-7.63-3.82z"/><path fill="#bd0034" d="M13.26 0V5.89H0v2.95h13.26v5.99h2.94V8.84h13.27V5.89H16.2V0z"/><path fill="#fff" d="M40.9 10.03h1.6l.5-1.52.49 1.52h1.6l-1.29.94.49 1.53-1.29-.95-1.3.95.5-1.53z"/><path fill="#bd0034" d="M41.61 10.26h1.06l.33-1 .32 1h1.06l-.85.63.32 1-.85-.62-.86.62.33-1z"/><path fill="#fff" d="M34.5 16.48h1.6l.49-1.53.5 1.53h1.6l-1.3.93.5 1.53-1.3-.94-1.29.94.49-1.53z"/><path fill="#bd0034" d="M35.21 16.71h1.06l.32-1.01.33 1.01h1.06l-.86.62.33 1.01-.86-.63-.85.63.32-1.01z"/><path fill="#fff" d="M46.62 14.88h1.43l.44-1.36.44 1.36h1.42l-1.15.83.44 1.36-1.15-.84-1.16.84.44-1.36z"/><path fill="#bd0034" d="M47.25 15.08h.95l.29-.89.29.89h.94l-.76.56.29.89-.76-.55-.76.55.29-.89z"/><path fill="#fff" d="M40.67 26.59h1.78L43 24.9l.55 1.69h1.78l-1.44 1.05.55 1.69L43 28.28l-1.44 1.05.55-1.69z"/><path fill="#bd0034" d="M41.46 26.85h1.17l.37-1.12.36 1.12h1.18l-.96.69.37 1.12-.95-.69-.95.69.36-1.12z"/></svg>