<svg xmlns="http://www.w3.org/2000/svg" viewBox="0 0 120 30" width="120" height="30">
  <path d="M 0,0 H 30 V 30 H 0 Z" fill="#e10600"/>
  <path d="M 30,0 H 120 V 30 H 30 Z" fill="#e10600"/>
  <path d="M 50,7 H 65 L 60,23 H 45 Z" fill="white"/>
  <path d="M 12,7 H 27 L 22,23 H 7 Z" fill="white"/>
  <path d="M 70,7 H 85 L 80,23 H 65 Z" fill="white"/>
  <path d="M 12,7 H 27 L 22,23 H 7 Z" fill="white"/>
  <path d="M 90,7 H 105 L 100,23 H 85 Z" fill="white"/>
  <path d="M 15,10 H 22 L 19,20 H 12 Z" fill="#e10600"/>
  <path d="M 53,10 H 60 L 57,20 H 50 Z" fill="#e10600"/>
  <path d="M 73,10 H 80 L 77,20 H 70 Z" fill="#e10600"/>
  <path d="M 93,10 H 100 L 97,20 H 90 Z" fill="#e10600"/>
</svg>
